PathFileType	4	(X/Y/Z)	/Users/itak/Documents/Research/Walk-IL/dataset/trc/00028_00004.trc
DataRate	CameraRate	NumFrames	NumMarkers	Units	OrigDataRate	OrigDataStartFrame	OrigNumFrames
100.000000	100.000000	4	53	mm	100.000000	395	633
Frame#	Time	RPSI			LPSI			L3			STRN			T10			C7			CLAV			RBAK			LBAK			LSHO			LUPA			LAEL			LAOL			LWTS			LWPS			LFRA			LIFD			LHPS			LHTS			RSHO			RUPA			RAEL			RAOL			RWTS			RWPS			RFRA			RIFD			RHTS			RHPS			RBHD			LFHD			RFHD			LBHD			LHIP			RHIP			RASI			LASI			LKNE			LTHI			LANK			LTIP			LTOE			LMT1			LMT5			LHEE			RKNE			RTHI			RANK			RTIP			RTOE			RMT1			RMT5			RHEE			
		X1	Y1	Z1	X2	Y2	Z2	X3	Y3	Z3	X4	Y4	Z4	X5	Y5	Z5	X6	Y6	Z6	X7	Y7	Z7	X8	Y8	Z8	X9	Y9	Z9	X10	Y10	Z10	X11	Y11	Z11	X12	Y12	Z12	X13	Y13	Z13	X14	Y14	Z14	X15	Y15	Z15	X16	Y16	Z16	X17	Y17	Z17	X18	Y18	Z18	X19	Y19	Z19	X20	Y20	Z20	X21	Y21	Z21	X22	Y22	Z22	X23	Y23	Z23	X24	Y24	Z24	X25	Y25	Z25	X26	Y26	Z26	X27	Y27	Z27	X28	Y28	Z28	X29	Y29	Z29	X30	Y30	Z30	X31	Y31	Z31	X32	Y32	Z32	X33	Y33	Z33	X34	Y34	Z34	X35	Y35	Z35	X36	Y36	Z36	X37	Y37	Z37	X38	Y38	Z38	X39	Y39	Z39	X40	Y40	Z40	X41	Y41	Z41	X42	Y42	Z42	X43	Y43	Z43	X44	Y44	Z44	X45	Y45	Z45	X46	Y46	Z46	X47	Y47	Z47	X48	Y48	Z48	X49	Y49	Z49	X50	Y50	Z50	X51	Y51	Z51	X52	Y52	Z52	X53	Y53	Z53	

396	3.95	918.7808227539062	1045.7880859375	54.66317367553711	1078.395263671875	1047.896240234375	25.97064208984375	1005.616943359375	1112.826293945312	33.06669998168945	1025.19677734375	1296.830200195312	263.6900024414062	1004.322082519531	1257.592407226562	12.68554782867432	1007.054870605469	1523.75537109375	74.12044525146484	1019.323608398438	1423.879028320312	225.6231689453125	930.339111328125	1385.879150390625	18.49404144287109	1104.056640625	1491.069946289062	43.87370681762695	1183.832153320312	1497.787109375	139.3910522460938	1271.95361328125	1387.217529296875	92.15078735351562	1327.6884765625	1179.71142578125	69.53662872314453	1235.7958984375	1155.529541015625	22.4966983795166	1311.521728515625	931.9263916015625	179.1727447509766	1351.98828125	916.0917358398438	101.6347274780273	1350.792358398438	1067.240356445312	87.12258148193359	1318.657592773438	749.3283081054688	222.0369262695312	1364.326904296875	830.5502319335938	142.8831634521484	1336.823974609375	842.8399047851562	207.3563232421875	840.956298828125	1492.825439453125	163.3238067626953	771.951416015625	1425.070922851562	144.5021057128906	739.350341796875	1172.8193359375	62.56536483764648	834.8655395507812	1142.18115234375	59.46591567993164	753.9990844726562	891.2376098632812	135.9874420166016	691.68115234375	892.975830078125	67.0284423828125	720.1224365234375	1097.298706054688	59.51139450073242	765.9949340820312	706.1080932617188	114.2119369506836	736.033935546875	777.8267211914062	144.1534271240234	688.7835693359375	785.3047485351562	84.73979949951172	1060.72509765625	1709.306274414062	201.7447662353516	877.8745727539062	1659.611083984375	310.7420349121094	966.1595458984375	1668.959106445312	351.5323486328125	928.53955078125	1691.591918945312	146.6328582763672	1206.985107421875	951.0684814453125	103.7938766479492	842.214111328125	927.7501831054688	185.6534576416016	932.2315063476562	968.6090698242188	270.4342346191406	1162.139038085938	994.8643188476562	228.3355407714844	1191.703002929688	511.1575927734375	214.029052734375	1217.288208007812	645.6378784179688	165.1643371582031	1192.554809570312	28.71069717407227	73.13929748535156	1206.622436523438	274.9741516113281	118.3804016113281	1138.75048828125	29.82476234436035	296.7567138671875	1120.161499023438	38.78613662719727	236.8833465576172	1220.822387695312	25.59035873413086	194.3314056396484	1137.567749023438	39.37674713134766	6.635757446289062	906.9085693359375	514.5768432617188	333.9527282714844	857.2239379882812	775.4977416992188	246.4928131103516	933.3431396484375	165.7542572021484	-26.21627235412598	911.4410400390625	400.7705688476562	266.4630126953125	996.6030883789062	35.54522323608398	157.9754791259766	1018.919311523438	77.00398254394531	104.6281433105469	923.487060546875	79.10147857666016	97.45951080322266	976.4852905273438	197.0089721679688	-73.98227691650391	
397	3.96	920.7722778320312	1046.65625	61.59270477294922	1080.560668945312	1048.659912109375	34.27214813232422	1007.96484375	1113.635864257812	40.77496337890625	1024.989379882812	1297.412475585938	272.0823059082031	1007.197387695312	1258.409545898438	20.66543579101562	1009.211303710938	1524.455444335938	82.50088500976562	1019.578002929688	1424.485229492188	234.0750732421875	933.2146606445312	1386.6708984375	25.74936103820801	1106.626831054688	1491.868286132812	53.48068618774414	1185.12548828125	1498.597290039062	150.0064544677734	1274.101806640625	1388.193603515625	104.0712585449219	1330.739868164062	1180.842041015625	82.58127593994141	1239.690673828125	1156.189331054688	34.22056198120117	1313.234619140625	934.5872802734375	194.8530426025391	1354.941528320312	917.7249755859375	118.2054214477539	1353.759765625	1068.634521484375	101.7331085205078	1320.098266601562	752.7401733398438	240.5995941162109	1366.761352539062	832.8002319335938	160.8932952880859	1338.227905273438	846.018798828125	224.723388671875	842.0751342773438	1493.464721679688	169.5488739013672	773.3803100585938	1425.7216796875	149.7262725830078	741.8349609375	1173.777954101562	66.73125457763672	837.2657470703125	1142.838623046875	65.44844818115234	754.0430297851562	891.8871459960938	139.7696533203125	693.1559448242188	894.1324462890625	69.52896118164062	722.385498046875	1098.347290039062	63.15975570678711	765.8472900390625	706.8417358398438	117.5890274047852	735.4749755859375	778.5963745117188	147.1111297607422	689.3314819335938	786.4385986328125	86.83963775634766	1060.910888671875	1709.989990234375	210.8817596435547	876.796875	1659.87158203125	317.3695068359375	964.665283203125	1669.244384765625	359.8145446777344	929.4566040039062	1692.098754882812	154.1206817626953	1208.314697265625	951.69091796875	112.5414428710938	842.7786865234375	929.2632446289062	192.2945098876953	932.5365600585938	969.596435546875	277.508056640625	1162.71044921875	995.0552978515625	237.1498107910156	1192.376342773438	510.486328125	215.5086822509766	1217.860229492188	645.6041259765625	169.0701599121094	1192.528442382812	28.93316650390625	73.0977783203125	1206.812866210938	275.1578979492188	118.6760177612305	1138.85107421875	29.89582252502441	296.7733154296875	1120.2587890625	38.91660690307617	236.9128112792969	1220.909912109375	25.5234546661377	194.3134918212891	1137.4306640625	39.58468246459961	6.667403697967529	905.1329345703125	518.9118041992188	347.0660095214844	856.5977172851562	778.275390625	254.925537109375	939.7227783203125	155.5986175537109	1.194700598716736	911.0115356445312	402.65625	283.0831909179688	999.1381225585938	35.16049957275391	193.2259674072266	1022.551147460938	73.86326599121094	138.0888061523438	927.3208618164062	75.27227783203125	128.6976318359375	983.7896118164062	184.6786193847656	-47.12165832519531	
398	3.97	922.6451416015625	1047.328125	68.52412414550781	1082.615966796875	1049.264892578125	42.56343460083008	1010.168640136719	1114.282470703125	48.48595428466797	1024.70947265625	1297.8046875	280.4232482910156	1009.901123046875	1259.069702148438	28.6512622833252	1011.226379394531	1524.996948242188	90.89689636230469	1019.743286132812	1424.905883789062	242.5077362060547	935.9195556640625	1387.292846679688	33.06244659423828	1109.01220703125	1492.503173828125	63.079833984375	1186.287231445312	1499.259399414062	160.5592498779297	1276.065307617188	1389.007446289062	115.9156112670898	1333.609497070312	1181.849853515625	95.46280670166016	1243.397827148438	1156.716552734375	45.84879302978516	1314.6728515625	937.1184692382812	210.3218688964844	1357.578002929688	919.2523803710938	134.5760498046875	1356.490966796875	1069.910766601562	116.162971496582	1321.109497070312	756.0437622070312	258.8829650878906	1368.819580078125	834.9452514648438	178.6727905273438	1339.3017578125	849.083251953125	241.8501739501953	843.12060546875	1493.943969726562	175.8305358886719	774.7179565429688	1426.177368164062	155.0851745605469	744.2192993164062	1174.4921875	71.17093658447266	839.5546264648438	1143.289672851562	71.58702087402344	754.208251953125	892.346923828125	143.7507934570312	694.644287109375	895.0528564453125	72.36662292480469	724.5843505859375	1099.15380859375	67.11292266845703	765.8660278320312	707.3685913085938	121.1286163330078	735.1024169921875	779.1382446289062	150.3038940429688	690.0215454101562	787.3276977539062	89.27072143554688	1061.018310546875	1710.486206054688	219.9633636474609	875.7183837890625	1659.984497070312	324.0355224609375	963.0921020507812	1669.406982421875	367.9675903320312	930.291259765625	1692.433959960938	161.6094970703125	1209.5712890625	952.1697387695312	121.2779388427734	843.3064575195312	930.549072265625	198.9292144775391	932.74609375	970.3776245117188	284.5968322753906	1163.146850585938	995.1171264648438	245.9408264160156	1193.003540039062	509.8227844238281	216.9960784912109	1218.361572265625	645.5526123046875	173.0158538818359	1192.497802734375	29.17158699035645	73.06349182128906	1206.97412109375	275.3797607421875	118.9810180664062	1138.962158203125	30.00736427307129	296.7802429199219	1120.367553710938	39.06674575805664	236.9405212402344	1221.002685546875	25.45682716369629	194.2943572998047	1137.30029296875	39.84164047241211	6.695541858673096	903.1607666015625	522.9741821289062	359.6238708496094	855.9086303710938	780.7867431640625	263.1419982910156	945.5729370117188	145.2805938720703	29.31278991699219	910.2415771484375	404.3536071777344	299.3247680664062	1000.556274414062	34.89638900756836	228.6442108154297	1025.206420898438	70.79804229736328	171.9548492431641	930.24365234375	71.49324798583984	160.2284240722656	990.6659545898438	172.1150817871094	-19.35651779174805	
399	3.98	924.397705078125	1047.793212890625	75.46614074707031	1084.560791015625	1049.700805664062	50.85029602050781	1012.227600097656	1114.754516601562	56.21297073364258	1024.35546875	1298.008544921875	288.7149353027344	1012.430114746094	1259.561401367188	36.65090179443359	1013.089172363281	1525.373291015625	99.30390167236328	1019.809997558594	1425.141967773438	250.9158935546875	938.4539184570312	1387.732299804688	40.43454360961914	1111.20654296875	1492.968872070312	72.65608978271484	1187.310302734375	1499.76904296875	171.0339813232422	1277.8408203125	1389.652709960938	127.6695251464844	1336.294311523438	1182.716674804688	108.2008514404297	1246.914184570312	1157.0986328125	57.38673782348633	1315.851196289062	939.4935302734375	225.5711669921875	1359.907958984375	920.654296875	150.7379455566406	1358.987915039062	1071.052856445312	130.4197998046875	1321.691650390625	759.1987915039062	276.8364868164062	1370.517211914062	836.9588012695312	196.1991577148438	1340.046875	851.994384765625	258.7075805664062	844.0806274414062	1494.251220703125	182.1698150634766	775.9487915039062	1426.43115234375	160.5756378173828	746.4818115234375	1174.9560546875	75.88130187988281	841.7133178710938	1143.534545898438	77.86505889892578	754.484619140625	892.608154296875	147.9423980712891	696.1259155273438	895.7236328125	75.54537963867188	726.7000732421875	1099.711669921875	71.36898040771484	766.05126953125	707.6851806640625	124.8640518188477	734.9124145507812	779.4442138671875	153.7534942626953	690.8395385742188	787.9586181640625	92.04401397705078	1061.048217773438	1710.792602539062	229.0028533935547	874.635009765625	1659.944458007812	330.7665405273438	961.4515991210938	1669.430908203125	376.0094299316406	931.037109375	1692.596069335938	169.1177673339844	1210.75	952.4857788085938	130.02783203125	843.8115234375	931.5889892578125	205.5613098144531	932.8595581054688	970.948974609375	291.7039794921875	1163.46240234375	995.0482177734375	254.7121429443359	1193.564575195312	509.1600341796875	218.5371551513672	1218.782592773438	645.4712524414062	177.0440521240234	1192.453247070312	29.41231536865234	73.04019165039062	1207.09912109375	275.6236267089844	119.3117980957031	1139.081420898438	30.15975952148438	296.7755432128906	1120.479858398438	39.21684646606445	236.9579467773438	1221.097290039062	25.39487266540527	194.2749328613281	1137.183227539062	40.14438247680664	6.723047733306885	901.0145874023438	526.7135009765625	371.6138305664062	855.1591186523438	782.9951782226562	271.1416931152344	950.8718872070312	134.9635314941406	58.06818008422852	909.1560668945312	405.8668518066406	315.1623229980469	1000.747619628906	34.83522033691406	264.1047973632812	1026.808837890625	67.89700317382812	206.1475982666016	932.1927490234375	67.88975524902344	191.9412384033203	997.1105346679688	159.4719848632812	9.275005340576172	
